<svg width="57" height="57" viewBox="0 0 57 57" fill="none" xmlns="http://www.w3.org/2000/svg">
<g clip-path="url(#clip0_856_1078)">
<path d="M56.305 28.8566C56.305 44.3158 43.7729 56.848 28.3136 56.848C12.8544 56.848 0.322266 44.3158 0.322266 28.8566C0.322266 13.3974 12.8544 0.865234 28.3136 0.865234C43.7729 0.865234 56.305 13.3974 56.305 28.8566ZM3.8384 28.8566C3.8384 42.3739 14.7963 53.3319 28.3136 53.3319C41.831 53.3319 52.7889 42.3739 52.7889 28.8566C52.7889 15.3393 41.831 4.38137 28.3136 4.38137C14.7963 4.38137 3.8384 15.3393 3.8384 28.8566Z" fill="#2D2B2B"/>
<path d="M10.9834 36.906H45.6445" stroke="#2D2B2B" stroke-width="3"/>
<path d="M10.9834 27.8113H45.6445" stroke="#2D2B2B" stroke-width="3"/>
<path d="M10.9834 19.2219H45.6445" stroke="#2D2B2B" stroke-width="3"/>
</g>
<defs>
<clipPath id="clip0_856_1078">
<rect width="57" height="57" fill="white"/>
</clipPath>
</defs>
</svg>
