<svg width="57" height="57" viewBox="0 0 57 57" fill="none" xmlns="http://www.w3.org/2000/svg">
<g clip-path="url(#clip0_861_1083)">
<path d="M56.7328 28.4731C56.7328 43.9323 44.2006 56.4645 28.7414 56.4645C13.2822 56.4645 0.75 43.9323 0.75 28.4731C0.75 13.0139 13.2822 0.481689 28.7414 0.481689C44.2006 0.481689 56.7328 13.0139 56.7328 28.4731ZM4.26613 28.4731C4.26613 41.9904 15.2241 52.9483 28.7414 52.9483C42.2587 52.9483 53.2166 41.9904 53.2166 28.4731C53.2166 14.9558 42.2587 3.99782 28.7414 3.99782C15.2241 3.99782 4.26613 14.9558 4.26613 28.4731Z" fill="#2D2B2B"/>
<path d="M17.0059 17.8877L42.7094 41.1412" stroke="#2D2B2B" stroke-width="3"/>
<path d="M41.915 17.8877L16.2116 41.1412" stroke="#2D2B2B" stroke-width="3"/>
</g>
<defs>
<clipPath id="clip0_861_1083">
<rect width="57" height="57" fill="white"/>
</clipPath>
</defs>
</svg>
