<svg width="80" height="80" viewBox="0 0 80 80" fill="none" xmlns="http://www.w3.org/2000/svg">
<g clip-path="url(#clip0_801_1078)">
<path d="M79.0312 39.9656C79.0312 61.7808 61.3465 79.4656 39.5312 79.4656C17.716 79.4656 0.03125 61.7808 0.03125 39.9656C0.03125 18.1503 17.716 0.465576 39.5312 0.465576C61.3465 0.465576 79.0312 18.1503 79.0312 39.9656ZM4.99304 39.9656C4.99304 59.0405 20.4563 74.5038 39.5312 74.5038C58.6062 74.5038 74.0695 59.0405 74.0695 39.9656C74.0695 20.8906 58.6062 5.42736 39.5312 5.42736C20.4563 5.42736 4.99304 20.8906 4.99304 39.9656Z" fill="white"/>
<path d="M21.609 22.1673C22.4866 21.2028 23.9798 21.1325 24.9442 22.0101L57.8654 51.9676C58.8298 52.8453 58.9002 54.3385 58.0226 55.3029C57.145 56.2674 55.6518 56.3377 54.6873 55.4601L21.7662 25.5025C20.8017 24.6249 20.7314 23.1317 21.609 22.1673Z" fill="white"/>
<path d="M57.7384 22.1673C56.8608 21.2028 55.3675 21.1325 54.4031 22.0101L21.482 51.9676C20.5175 52.8453 20.4472 54.3385 21.3248 55.3029C22.2024 56.2674 23.6956 56.3377 24.66 55.4601L57.5812 25.5025C58.5456 24.6249 58.616 23.1317 57.7384 22.1673Z" fill="white"/>
</g>
<defs>
<clipPath id="clip0_801_1078">
<rect width="80" height="80" fill="#00000000"/>
</clipPath>
</defs>
</svg>
