<svg width="591" height="591" viewBox="0 0 591 591" fill="none" xmlns="http://www.w3.org/2000/svg">
<g clip-path="url(#clip0_801_1078)">
<path d="M286.465 483.288V209.253H314.174V483.288H286.465Z" fill="#400002"/>
<path d="M440.213 223.108H286.464V195.399H440.213V223.108Z" fill="#400002"/>
<path d="M426.358 250.039C418.706 250.039 412.503 243.836 412.503 236.185V196.176H440.212V236.185C440.212 243.836 434.009 250.039 426.358 250.039Z" fill="#400002"/>
<path d="M269.217 468.077C269.217 459.676 276.027 452.866 284.428 452.866H323.08V483.288H284.428C276.027 483.288 269.217 476.478 269.217 468.077Z" fill="#400002"/>
<path d="M272.61 194.203C264.958 194.203 258.755 188 258.755 180.348V140.34H286.464V180.348C286.464 188 280.261 194.203 272.61 194.203Z" fill="#400002"/>
<path d="M286.465 140.134H211.249C156.845 140.134 112.741 184.238 112.741 238.642C112.741 293.046 156.845 337.15 211.249 337.15H286.465V305.764H211.249C174.179 305.764 144.127 275.712 144.127 238.642C144.127 201.572 174.179 171.52 211.249 171.52H286.465V140.134Z" fill="#400002"/>
<path d="M300.319 483.288H389.288C438.423 483.288 478.256 443.456 478.256 394.32C478.256 345.184 438.423 305.352 389.287 305.352H300.319V336.738H389.287C421.089 336.738 446.87 362.518 446.87 394.32C446.87 426.122 421.089 451.902 389.288 451.902H300.319V483.288Z" fill="#400002"/>
<path d="M590.403 295.107C590.403 457.977 458.37 590.01 295.499 590.01C132.629 590.01 0.595703 457.977 0.595703 295.107C0.595703 132.236 132.629 0.203125 295.499 0.203125C458.37 0.203125 590.403 132.236 590.403 295.107ZM23.8226 295.107C23.8226 445.15 145.456 566.783 295.499 566.783C445.542 566.783 567.176 445.15 567.176 295.107C567.176 145.064 445.542 23.43 295.499 23.43C145.456 23.43 23.8226 145.064 23.8226 295.107Z" fill="#400002"/>
<path d="M325.046 86.5898C325.046 102.908 311.818 116.136 295.5 116.136C279.181 116.136 265.953 102.908 265.953 86.5898C265.953 70.2715 279.181 57.043 295.5 57.043C311.818 57.043 325.046 70.2715 325.046 86.5898Z" fill="#4F131B"/>
</g>
<defs>
<clipPath id="clip0_801_1078">
<rect width="591" height="591" fill="white"/>
</clipPath>
</defs>
</svg>
